<svg width="42" height="39" viewBox="0 0 42 39" fill="none" xmlns="http://www.w3.org/2000/svg">
<path d="M2.11208 22.08C1.40808 21.76 0.864078 21.152 0.480078 20.256C0.160078 19.296 7.82609e-05 18.4 7.82609e-05 17.568C7.82609e-05 17.44 7.82609e-05 17.28 7.82609e-05 17.088C7.82609e-05 16.896 0.0320783 16.736 0.0960783 16.608L0.384078 15.648L0.672078 15.936C3.16808 15.936 5.79208 15.936 8.54408 15.936C11.3601 15.936 13.9841 16 16.4161 16.128C16.4161 15.36 16.4161 14.592 16.4161 13.824C16.4161 13.12 16.4161 12.448 16.4161 11.808C16.4161 11.104 16.4481 10.4 16.5121 9.69598L16.1281 8.15998L16.3201 7.48798L15.3601 5.56798C15.6801 4.79998 16.1601 3.96798 16.8001 3.07198C17.4401 2.17598 18.0801 1.43998 18.7201 0.863976C19.4241 0.287975 19.9361 0.0959759 20.2561 0.287977L21.8881 1.34398C22.4641 1.47198 22.8481 1.82398 23.0401 2.39998C23.2321 2.97598 23.3281 3.71198 23.3281 4.60798C23.3281 6.01598 23.1681 7.67998 22.8481 9.59998C22.5281 11.456 22.3681 13.216 22.3681 14.88C22.3681 15.328 22.3361 15.808 22.2721 16.32L26.1121 16.512L27.1681 16.8C27.9361 16.672 29.1521 16.608 30.8161 16.608C32.4801 16.544 34.1441 16.512 35.8081 16.512C36.7041 16.512 37.5361 16.512 38.3041 16.512C39.1361 16.512 39.8401 16.544 40.4161 16.608C40.9921 16.608 41.2801 16.864 41.2801 17.376C41.2801 17.76 41.1521 18.176 40.8961 18.624C40.7041 19.072 40.5121 19.392 40.3201 19.584C39.2321 19.84 38.3041 20.096 37.5361 20.352C36.8321 20.608 36.0641 20.672 35.2321 20.544C34.8481 20.288 34.1441 20.192 33.1201 20.256C32.0961 20.256 31.3921 20.128 31.0081 19.872C29.9841 20.576 29.2161 20.928 28.7041 20.928C28.2561 20.928 27.6161 20.928 26.7841 20.928C25.9521 21.184 25.3441 21.28 24.9601 21.216C24.5761 21.088 24.1281 21.056 23.6161 21.12L21.6961 20.64H21.6001C21.5361 21.152 21.4721 21.664 21.4081 22.176C21.4081 22.624 21.4081 23.072 21.4081 23.52C21.4081 23.584 21.3761 23.648 21.3121 23.712C21.3121 23.776 21.3121 23.872 21.3121 24C21.3121 24.384 21.3441 24.832 21.4081 25.344C21.5361 25.792 21.6001 26.176 21.6001 26.496C21.6641 26.944 21.6961 27.52 21.6961 28.224C21.7601 28.864 21.7921 29.632 21.7921 30.528C21.7921 31.616 21.7601 32.8 21.6961 34.08C21.6321 35.296 21.4721 36.448 21.2161 37.536C21.0241 38.176 20.6721 38.496 20.1601 38.496C19.7761 38.496 19.3601 38.24 18.9121 37.728C18.4641 37.28 18.0801 36.64 17.7601 35.808C17.6961 35.616 17.6641 35.36 17.6641 35.04C17.6641 34.4 17.7601 33.952 17.9521 33.696C18.1441 33.44 17.9841 33.184 17.4721 32.928L18.0481 31.776C17.6001 31.264 17.3121 30.688 17.1841 30.048C17.1201 29.344 17.0881 28.736 17.0881 28.224C17.0881 27.648 16.9281 27.36 16.6081 27.36L16.4161 24.384L16.8961 22.272C16.8321 21.824 16.8001 21.376 16.8001 20.928C15.7121 20.992 14.6241 21.056 13.5361 21.12C12.4481 21.12 11.3921 21.12 10.3681 21.12C9.72808 21.12 9.12008 21.12 8.54408 21.12C7.96808 21.12 7.39208 21.088 6.81608 21.024L5.18408 21.408L4.51208 21.12L2.11208 22.08ZM29.4721 18.24H30.2401L30.5281 17.856L29.4721 17.76V18.24Z" fill="#D3968C"/>
</svg>
